<?xml version="1.0" encoding="UTF-8" standalone="no"?>
<!-- Created with Inkscape (http://www.inkscape.org/) -->

<svg
   xmlns:dc="http://purl.org/dc/elements/1.1/"
   xmlns:cc="http://creativecommons.org/ns#"
   xmlns:rdf="http://www.w3.org/1999/02/22-rdf-syntax-ns#"
   xmlns:svg="http://www.w3.org/2000/svg"
   xmlns="http://www.w3.org/2000/svg"
   xmlns:sodipodi="http://sodipodi.sourceforge.net/DTD/sodipodi-0.dtd"
   xmlns:inkscape="http://www.inkscape.org/namespaces/inkscape"
   width="210mm"
   height="297mm"
   viewBox="0 0 210 297"
   version="1.1"
   id="svg8"
   inkscape:version="0.92.1 r15371"
   sodipodi:docname="gesture.svg">
  <defs
     id="defs2">
    <clipPath
       clipPathUnits="userSpaceOnUse"
       id="clipPath8490">
      <path
         style="fill:#000000;stroke-width:0.26458338"
         d="M 32.848375,67.30973 C 30.969119,67.10466 28.62357,66.175311 27.151528,65.05253 25.877244,64.080591 24.455495,61.800089 23.835344,59.733347 23.3525,58.124209 23.286423,57.022561 23.184381,48.880437 l -0.11357,-9.061979 h 1.719792 1.719792 l 0.110557,9.061979 c 0.125449,10.28259 0.214741,10.809632 2.160875,12.7546 1.768428,1.767374 3.307176,2.366962 6.110238,2.380932 2.088496,0.0104 2.56745,-0.0796 3.895791,-0.731869 0.832995,-0.409051 1.927862,-1.226603 2.433034,-1.81678 1.739688,-2.032434 1.812396,-2.503805 1.941483,-12.586883 l 0.116018,-9.061979 h 1.714756 1.71476 L 46.59643,49.012729 C 46.4805,58.574035 46.381231,59.494142 45.219083,61.778875 43.100895,65.943139 38.632559,67.94091 32.848375,67.30973 Z M 167.93979,35.404586 c 0.2152,-0.410027 1.35252,-2.352847 2.52738,-4.317378 l 2.13611,-3.571875 -0.98998,-0.459737 c -0.54449,-0.252857 -1.70435,-0.765992 -2.57748,-1.140299 l -1.5875,-0.680561 2.4474,-1.081122 c 1.34607,-0.594616 2.44731,-1.212577 2.4472,-1.373243 -1e-4,-0.160665 -0.60289,-1.304152 -1.33952,-2.541079 -0.73663,-1.236928 -1.83281,-3.141928 -2.43595,-4.233334 -0.9958,-1.801934 -1.03685,-1.946346 -0.44642,-1.570736 2.72101,1.731013 7.96359,4.796589 8.05188,4.7083 0.0598,-0.0598 0.58633,-1.147405 1.17006,-2.416897 0.58373,-1.269492 1.11584,-2.308167 1.18245,-2.308167 0.0666,0 0.56527,1.071563 1.10813,2.38125 0.54286,1.309688 1.06988,2.38125 1.17115,2.38125 0.10128,0 1.90003,-1.02312 3.99722,-2.273599 5.04968,-3.010945 4.8379,-2.90267 4.5192,-2.31049 -0.14299,0.265676 -1.28309,2.198931 -2.53357,4.296122 -1.25048,2.097191 -2.2736,3.896503 -2.2736,3.998471 0,0.101968 1.16086,0.668078 2.57969,1.258022 l 2.57968,1.072624 -1.32291,0.565271 c -3.35002,1.431436 -3.85092,1.705515 -3.72355,2.037435 0.0723,0.188439 1.16235,2.041366 2.42232,4.11761 1.25996,2.076246 2.35456,3.882834 2.43243,4.014641 0.15854,0.268338 -2.62386,-1.239482 -6.02599,-3.265561 -1.23693,-0.736629 -2.38313,-1.339414 -2.54711,-1.339519 -0.16398,-1.06e-4 -0.55473,0.624885 -0.86833,1.388869 -0.3136,0.763984 -0.79299,1.865312 -1.06531,2.447396 l -0.49514,1.058333 -1.12562,-2.447396 c -0.61909,-1.346067 -1.23715,-2.447396 -1.37347,-2.447396 -0.13632,0 -1.8142,0.93467 -3.72863,2.077046 -1.91442,1.142373 -3.75588,2.221992 -4.09213,2.399149 -0.60471,0.318595 -0.60711,0.313986 -0.22009,-0.4234 z m 12.1737,-6.1625 c 0.16468,0.0038 1.18538,0.47716 2.26823,1.051851 1.08284,0.574688 2.00781,1.005888 2.05547,0.95822 0.0477,-0.04767 -0.45045,-1.027014 -1.10694,-2.17633 -0.65649,-1.149313 -1.1945,-2.162413 -1.19558,-2.251332 -0.001,-0.08892 0.53381,-0.445902 1.18865,-0.793294 0.65485,-0.347395 1.19063,-0.693849 1.19063,-0.769898 0,-0.07605 -0.53578,-0.430953 -1.19063,-0.788678 -0.65484,-0.357725 -1.19062,-0.685303 -1.19062,-0.727951 0,-0.04265 0.48377,-1.039722 1.07505,-2.215719 0.59128,-1.175993 1.03776,-2.171758 0.99219,-2.212811 -0.0456,-0.04105 -0.9163,0.442461 -1.93495,1.074471 -1.01865,0.63201 -1.98089,1.154168 -2.13832,1.160351 -0.15743,0.0062 -0.59393,-0.548275 -0.97,-1.23213 l -0.68376,-1.24337 -0.60408,1.24337 c -0.33224,0.683855 -0.72918,1.242486 -0.88208,1.241404 -0.15291,-0.0011 -1.21836,-0.539094 -2.36767,-1.195581 -1.14932,-0.656487 -2.1391,-1.144172 -2.19953,-1.083744 -0.0604,0.06043 0.3739,1.072047 0.96518,2.24804 0.59128,1.175997 1.07505,2.241797 1.07505,2.368447 0,0.126651 -0.47625,0.445032 -1.05833,0.707515 -1.25062,0.563951 -1.30521,0.757139 -0.33073,1.170424 1.82812,0.775319 1.83171,0.802706 0.44024,3.3554 l -1.26205,2.315255 2.27064,-1.237728 c 1.24885,-0.680749 2.32126,-1.237727 2.38313,-1.237727 0.0619,0 0.39232,0.597461 0.73434,1.327693 l 0.62186,1.32769 0.77759,-1.195398 c 0.42768,-0.657472 0.91234,-1.192269 1.07702,-1.18844 z"
         id="path8492"
         inkscape:connector-curvature="0"
         sodipodi:nodetypes="cccscccscccsscccssccsccccscscccssssscsscccccccssccssccccccsccscsccsccccccccscsccsscccc" />
    </clipPath>
    <clipPath
       clipPathUnits="userSpaceOnUse"
       id="clipPath8496">
      <path
         style="fill:#000000;stroke-width:0.26458338"
         d="m 22.136147,107.45991 c -1.87926,-0.20507 -4.22481,-1.13442 -5.696852,-2.2572 -1.274284,-0.97194 -2.696033,-3.25244 -3.316184,-5.319184 -0.482844,-1.60914 -0.548921,-2.710778 -0.650963,-10.852909 l -0.11357,-9.061979 h 1.719792 1.719792 l 0.110556,9.061979 c 0.12545,10.282589 0.214741,10.809631 2.160879,12.754603 1.76842,1.76737 3.30717,2.36696 6.11023,2.38093 2.0885,0.0104 2.56746,-0.0796 3.895801,-0.73187 0.832988,-0.40905 1.92786,-1.2266 2.433029,-1.81678 1.739691,-2.032432 1.812401,-2.503803 1.941489,-12.586883 l 0.116012,-9.061979 h 1.714759 1.714759 l -0.111479,9.194268 c -0.11593,9.561311 -0.215199,10.48141 -1.377339,12.766154 -2.118191,4.16426 -6.58653,6.16203 -12.370711,5.53085 z M 157.22756,75.554766 c 0.2152,-0.410028 1.35252,-2.352847 2.52738,-4.317378 l 2.13611,-3.571875 -0.98998,-0.459738 c -0.54449,-0.252857 -1.70435,-0.765992 -2.57748,-1.140298 l -1.5875,-0.680562 2.4474,-1.081121 c 1.34607,-0.594617 2.44731,-1.212578 2.4472,-1.373243 -10e-5,-0.160666 -0.60289,-1.304153 -1.33952,-2.54108 -0.73663,-1.236927 -1.83281,-3.141927 -2.43595,-4.233333 -0.9958,-1.801935 -1.03685,-1.946347 -0.44642,-1.570736 2.72101,1.731012 7.96359,4.796589 8.05188,4.7083 0.0598,-0.0598 0.58633,-1.147406 1.17006,-2.416898 0.58373,-1.269492 1.11584,-2.308166 1.18245,-2.308166 0.0666,0 0.56527,1.071562 1.10813,2.38125 0.54286,1.309687 1.06988,2.38125 1.17115,2.38125 0.10128,0 1.90003,-1.02312 3.99722,-2.273599 5.04968,-3.010945 4.8379,-2.90267 4.5192,-2.31049 -0.14299,0.265676 -1.28309,2.198931 -2.53357,4.296121 -1.25048,2.097191 -2.2736,3.896503 -2.2736,3.998471 0,0.101968 1.16086,0.668078 2.57969,1.258022 l 2.57968,1.072624 -1.32291,0.565272 c -3.35002,1.431435 -3.85092,1.705514 -3.72355,2.037434 0.0723,0.188439 1.16235,2.041366 2.42232,4.11761 1.25996,2.076246 2.35456,3.882835 2.43243,4.014642 0.15854,0.268338 -2.62386,-1.239483 -6.02599,-3.265562 -1.23693,-0.736629 -2.38313,-1.339413 -2.54711,-1.339519 -0.16398,-1.06e-4 -0.55473,0.624885 -0.86833,1.38887 -0.3136,0.763984 -0.79299,1.865312 -1.06531,2.447395 l -0.49514,1.058334 -1.12562,-2.447396 c -0.61909,-1.346068 -1.23715,-2.447396 -1.37347,-2.447396 -0.13632,0 -1.8142,0.93467 -3.72863,2.077045 -1.91442,1.142373 -3.75588,2.221992 -4.09213,2.399149 -0.60471,0.318596 -0.60711,0.313987 -0.22009,-0.423399 z m 12.1737,-6.1625 c 0.16468,0.0038 1.18538,0.47716 2.26823,1.051851 1.08284,0.574688 2.00781,1.005887 2.05547,0.95822 0.0477,-0.04767 -0.45045,-1.027015 -1.10694,-2.17633 -0.65649,-1.149313 -1.1945,-2.162413 -1.19558,-2.251332 -0.001,-0.08892 0.53381,-0.445902 1.18865,-0.793295 0.65485,-0.347395 1.19063,-0.693849 1.19063,-0.769898 0,-0.07605 -0.53578,-0.430953 -1.19063,-0.788678 -0.65484,-0.357724 -1.19062,-0.685302 -1.19062,-0.72795 0,-0.04265 0.48377,-1.039723 1.07505,-2.215719 0.59128,-1.175994 1.03776,-2.171758 0.99219,-2.212811 -0.0456,-0.04105 -0.9163,0.44246 -1.93495,1.07447 -1.01865,0.63201 -1.98089,1.154168 -2.13832,1.160352 -0.15743,0.0062 -0.59393,-0.548275 -0.97,-1.232131 l -0.68376,-1.243369 -0.60408,1.243369 c -0.33224,0.683856 -0.72918,1.242486 -0.88208,1.241404 -0.15291,-0.0011 -1.21836,-0.539094 -2.36767,-1.19558 -1.14932,-0.656487 -2.1391,-1.144173 -2.19953,-1.083744 -0.0604,0.06043 0.3739,1.072046 0.96518,2.24804 0.59128,1.175996 1.07505,2.241796 1.07505,2.368447 0,0.12665 -0.47625,0.445031 -1.05833,0.707514 -1.25062,0.563951 -1.30521,0.75714 -0.33073,1.170424 1.82812,0.775319 1.83171,0.802706 0.44024,3.355401 l -1.26205,2.315255 2.27064,-1.237729 c 1.24885,-0.680749 2.32126,-1.237726 2.38313,-1.237726 0.0619,0 0.39232,0.597461 0.73434,1.327692 l 0.62186,1.32769 0.77759,-1.195398 c 0.42768,-0.657471 0.91234,-1.192268 1.07702,-1.188439 z"
         id="path8498"
         inkscape:connector-curvature="0"
         sodipodi:nodetypes="cccscccscccsscccssccsccccscscccssssscsscccccccssccssccccccsccscsccsccccccccscsccsscccc" />
    </clipPath>
    <clipPath
       clipPathUnits="userSpaceOnUse"
       id="clipPath8490-7-7">
      <path
         style="fill:#000000;stroke-width:0.26458338"
         d="M 32.848375,67.30973 C 30.969119,67.10466 28.62357,66.175311 27.151528,65.05253 25.877244,64.080591 24.455495,61.800089 23.835344,59.733347 23.3525,58.124209 23.286423,57.022561 23.184381,48.880437 l -0.11357,-9.061979 h 1.719792 1.719792 l 0.110557,9.061979 c 0.125449,10.28259 0.214741,10.809632 2.160875,12.7546 1.768428,1.767374 3.307176,2.366962 6.110238,2.380932 2.088496,0.0104 2.56745,-0.0796 3.895791,-0.731869 0.832995,-0.409051 1.927862,-1.226603 2.433034,-1.81678 1.739688,-2.032434 1.812396,-2.503805 1.941483,-12.586883 l 0.116018,-9.061979 h 1.714756 1.71476 L 46.59643,49.012729 C 46.4805,58.574035 46.381231,59.494142 45.219083,61.778875 43.100895,65.943139 38.632559,67.94091 32.848375,67.30973 Z M 167.93979,35.404586 c 0.2152,-0.410027 1.35252,-2.352847 2.52738,-4.317378 l 2.13611,-3.571875 -0.98998,-0.459737 c -0.54449,-0.252857 -1.70435,-0.765992 -2.57748,-1.140299 l -1.5875,-0.680561 2.4474,-1.081122 c 1.34607,-0.594616 2.44731,-1.212577 2.4472,-1.373243 -1e-4,-0.160665 -0.60289,-1.304152 -1.33952,-2.541079 -0.73663,-1.236928 -1.83281,-3.141928 -2.43595,-4.233334 -0.9958,-1.801934 -1.03685,-1.946346 -0.44642,-1.570736 2.72101,1.731013 7.96359,4.796589 8.05188,4.7083 0.0598,-0.0598 0.58633,-1.147405 1.17006,-2.416897 0.58373,-1.269492 1.11584,-2.308167 1.18245,-2.308167 0.0666,0 0.56527,1.071563 1.10813,2.38125 0.54286,1.309688 1.06988,2.38125 1.17115,2.38125 0.10128,0 1.90003,-1.02312 3.99722,-2.273599 5.04968,-3.010945 4.8379,-2.90267 4.5192,-2.31049 -0.14299,0.265676 -1.28309,2.198931 -2.53357,4.296122 -1.25048,2.097191 -2.2736,3.896503 -2.2736,3.998471 0,0.101968 1.16086,0.668078 2.57969,1.258022 l 2.57968,1.072624 -1.32291,0.565271 c -3.35002,1.431436 -3.85092,1.705515 -3.72355,2.037435 0.0723,0.188439 1.16235,2.041366 2.42232,4.11761 1.25996,2.076246 2.35456,3.882834 2.43243,4.014641 0.15854,0.268338 -2.62386,-1.239482 -6.02599,-3.265561 -1.23693,-0.736629 -2.38313,-1.339414 -2.54711,-1.339519 -0.16398,-1.06e-4 -0.55473,0.624885 -0.86833,1.388869 -0.3136,0.763984 -0.79299,1.865312 -1.06531,2.447396 l -0.49514,1.058333 -1.12562,-2.447396 c -0.61909,-1.346067 -1.23715,-2.447396 -1.37347,-2.447396 -0.13632,0 -1.8142,0.93467 -3.72863,2.077046 -1.91442,1.142373 -3.75588,2.221992 -4.09213,2.399149 -0.60471,0.318595 -0.60711,0.313986 -0.22009,-0.4234 z m 12.1737,-6.1625 c 0.16468,0.0038 1.18538,0.47716 2.26823,1.051851 1.08284,0.574688 2.00781,1.005888 2.05547,0.95822 0.0477,-0.04767 -0.45045,-1.027014 -1.10694,-2.17633 -0.65649,-1.149313 -1.1945,-2.162413 -1.19558,-2.251332 -0.001,-0.08892 0.53381,-0.445902 1.18865,-0.793294 0.65485,-0.347395 1.19063,-0.693849 1.19063,-0.769898 0,-0.07605 -0.53578,-0.430953 -1.19063,-0.788678 -0.65484,-0.357725 -1.19062,-0.685303 -1.19062,-0.727951 0,-0.04265 0.48377,-1.039722 1.07505,-2.215719 0.59128,-1.175993 1.03776,-2.171758 0.99219,-2.212811 -0.0456,-0.04105 -0.9163,0.442461 -1.93495,1.074471 -1.01865,0.63201 -1.98089,1.154168 -2.13832,1.160351 -0.15743,0.0062 -0.59393,-0.548275 -0.97,-1.23213 l -0.68376,-1.24337 -0.60408,1.24337 c -0.33224,0.683855 -0.72918,1.242486 -0.88208,1.241404 -0.15291,-0.0011 -1.21836,-0.539094 -2.36767,-1.195581 -1.14932,-0.656487 -2.1391,-1.144172 -2.19953,-1.083744 -0.0604,0.06043 0.3739,1.072047 0.96518,2.24804 0.59128,1.175997 1.07505,2.241797 1.07505,2.368447 0,0.126651 -0.47625,0.445032 -1.05833,0.707515 -1.25062,0.563951 -1.30521,0.757139 -0.33073,1.170424 1.82812,0.775319 1.83171,0.802706 0.44024,3.3554 l -1.26205,2.315255 2.27064,-1.237728 c 1.24885,-0.680749 2.32126,-1.237727 2.38313,-1.237727 0.0619,0 0.39232,0.597461 0.73434,1.327693 l 0.62186,1.32769 0.77759,-1.195398 c 0.42768,-0.657472 0.91234,-1.192269 1.07702,-1.18844 z"
         id="path8492-9-9"
         inkscape:connector-curvature="0"
         sodipodi:nodetypes="cccscccscccsscccssccsccccscscccssssscsscccccccssccssccccccsccscsccsccccccccscsccsscccc" />
    </clipPath>
    <clipPath
       clipPathUnits="userSpaceOnUse"
       id="clipPath8577">
      <rect
         y="8.9184332"
         x="50.474888"
         height="57.267254"
         width="25.154284"
         id="rect8579"
         style="opacity:1;fill:#a9a9a9;fill-opacity:0.90756303;stroke:none;stroke-width:1.16499996;stroke-linecap:round;stroke-linejoin:miter;stroke-miterlimit:4;stroke-dasharray:none;stroke-dashoffset:0;stroke-opacity:1;paint-order:normal" />
    </clipPath>
    <clipPath
       clipPathUnits="userSpaceOnUse"
       id="clipPath8603">
      <rect
         style="opacity:1;fill:#c9c9c9;fill-opacity:1;stroke:none;stroke-width:1.16499996;stroke-linecap:round;stroke-linejoin:miter;stroke-miterlimit:4;stroke-dasharray:none;stroke-dashoffset:0;stroke-opacity:1;paint-order:normal"
         id="rect8605"
         width="28.081673"
         height="59.912224"
         x="117.17139"
         y="6.2734566" />
    </clipPath>
    <clipPath
       clipPathUnits="userSpaceOnUse"
       id="clipPath8640">
      <rect
         style="opacity:1;fill:#c9c9c9;fill-opacity:1;stroke:none;stroke-width:1.46112561;stroke-linecap:round;stroke-linejoin:miter;stroke-miterlimit:4;stroke-dasharray:none;stroke-dashoffset:0;stroke-opacity:1;paint-order:normal"
         id="rect8642"
         width="44.171925"
         height="59.912228"
         x="50.474888"
         y="66.185684" />
    </clipPath>
    <clipPath
       clipPathUnits="userSpaceOnUse"
       id="clipPath8644">
      <rect
         style="opacity:1;fill:#c9c9c9;fill-opacity:1;stroke:none;stroke-width:1.46112561;stroke-linecap:round;stroke-linejoin:miter;stroke-miterlimit:4;stroke-dasharray:none;stroke-dashoffset:0;stroke-opacity:1;paint-order:normal"
         id="rect8646"
         width="44.171925"
         height="59.912228"
         x="94.646812"
         y="66.185684" />
    </clipPath>
    <filter
       inkscape:collect="always"
       style="color-interpolation-filters:sRGB"
       id="filter9915"
       x="-0.016152886"
       width="1.0323058"
       y="-0.046674689"
       height="1.0933494">
      <feGaussianBlur
         inkscape:collect="always"
         stdDeviation="3.5599406"
         id="feGaussianBlur9917" />
    </filter>
    <filter
       inkscape:collect="always"
       style="color-interpolation-filters:sRGB"
       id="filter9919"
       x="-0.016152886"
       width="1.0323058"
       y="-0.046674691"
       height="1.0933494">
      <feGaussianBlur
         inkscape:collect="always"
         stdDeviation="3.5599406"
         id="feGaussianBlur9921" />
    </filter>
    <filter
       inkscape:collect="always"
       style="color-interpolation-filters:sRGB"
       id="filter9923"
       x="-0.016152886"
       width="1.0323058"
       y="-0.046674689"
       height="1.0933494">
      <feGaussianBlur
         inkscape:collect="always"
         stdDeviation="3.5599406"
         id="feGaussianBlur9925" />
    </filter>
    <filter
       inkscape:collect="always"
       style="color-interpolation-filters:sRGB"
       id="filter9927"
       x="-0.016152886"
       width="1.0323058"
       y="-0.046674691"
       height="1.0933494">
      <feGaussianBlur
         inkscape:collect="always"
         stdDeviation="3.5599406"
         id="feGaussianBlur9929" />
    </filter>
  </defs>
  <sodipodi:namedview
     id="base"
     pagecolor="#ffffff"
     bordercolor="#666666"
     borderopacity="1.0"
     inkscape:pageopacity="0.0"
     inkscape:pageshadow="2"
     inkscape:zoom="1.2480349"
     inkscape:cx="274.52133"
     inkscape:cy="843.49489"
     inkscape:document-units="mm"
     inkscape:current-layer="layer1"
     showgrid="false"
     inkscape:window-width="1920"
     inkscape:window-height="1051"
     inkscape:window-x="-9"
     inkscape:window-y="-9"
     inkscape:window-maximized="1" />
  <metadata
     id="metadata5">
    <rdf:RDF>
      <cc:Work
         rdf:about="">
        <dc:format>image/svg+xml</dc:format>
        <dc:type
           rdf:resource="http://purl.org/dc/dcmitype/StillImage" />
        <dc:title />
      </cc:Work>
    </rdf:RDF>
  </metadata>
  <g
     inkscape:label="Layer 1"
     inkscape:groupmode="layer"
     id="layer1">
    <rect
       style="opacity:1;fill:#000000;fill-opacity:1;stroke:none;stroke-width:1.16499996;stroke-linecap:round;stroke-linejoin:miter;stroke-miterlimit:4;stroke-dasharray:none;stroke-dashoffset:0;stroke-opacity:1;paint-order:normal"
       id="rect8500"
       width="212.69986"
       height="134.89359"
       x="-11.681961"
       y="-6.2901616"
       ry="2.6449733"
       inkscape:export-xdpi="96"
       inkscape:export-ydpi="96" />
    <rect
       style="opacity:1;fill:#919191;fill-opacity:0.90756303;stroke:none;stroke-width:1.16499996;stroke-linecap:round;stroke-linejoin:miter;stroke-miterlimit:4;stroke-dasharray:none;stroke-dashoffset:0;stroke-opacity:1;paint-order:normal"
       id="rect8469"
       width="55.103588"
       height="46.727844"
       x="7.4940882"
       y="30.959866"
       clip-path="url(#clipPath8490)"
       transform="matrix(3.1748436,0,0,3.4433426,-16.976813,-125.40856)" />
    <rect
       style="opacity:1;fill:#ffffff;fill-opacity:1;stroke:none;stroke-width:1.16499996;stroke-linecap:round;stroke-linejoin:miter;stroke-miterlimit:4;stroke-dasharray:none;stroke-dashoffset:0;stroke-opacity:1;paint-order:normal"
       id="rect8494"
       width="34.605053"
       height="37.690857"
       x="152.52673"
       y="45.507214"
       clip-path="url(#clipPath8496)"
       transform="matrix(1.2004668,0,0,1.2004668,-107.47411,-33.690841)" />
    <path
       sodipodi:nodetypes="cccscccscccsscccssccsccccscscccssssscsscccccccssccssccccccsccscsccsccccccccscsccsscccc"
       inkscape:connector-curvature="0"
       id="path8492-9"
       d="M 87.31164,106.3619 C 81.345296,105.65577 73.898545,102.45571 69.225042,98.589591 65.17939,95.242871 60.665559,87.390321 58.696676,80.273821 57.163722,74.733001 56.953938,70.939651 56.629971,42.903532 L 56.269404,11.700035 h 5.46007 5.460071 l 0.351001,31.203497 c 0.398281,35.406479 0.681769,37.221269 6.86044,43.918459 5.614483,6.08567 10.499767,8.15026 19.39905,8.19836 6.630644,0.0358 8.151254,-0.27409 12.368524,-2.52007 2.64463,-1.40851 6.12066,-4.22362 7.72451,-6.2558 5.52323,-6.99837 5.75407,-8.62146 6.1639,-43.340949 l 0.36834,-31.203497 h 5.44408 5.4441 l -0.35392,31.659024 c -0.36806,32.922852 -0.68323,36.091092 -4.37287,43.958212 -6.72491,14.338989 -20.91118,21.217999 -39.27506,19.044629 z M 516.20575,-3.4984383 c 0.68323,-1.411864 4.29404,-8.1016577 8.02404,-14.8662107 l 6.78181,-12.29919 -3.14303,-1.583032 c -1.72867,-0.870673 -5.41104,-2.637572 -8.18309,-3.92644 l -5.04007,-2.343404 7.77011,-3.722674 c 4.27357,-2.047466 7.76983,-4.175317 7.76948,-4.728545 -3.2e-4,-0.553225 -1.91408,-4.490642 -4.25276,-8.749806 -2.33869,-4.259166 -5.81889,-10.818734 -7.73377,-14.576819 -3.1615,-6.204675 -3.29183,-6.701935 -1.41731,-5.408582 8.63878,5.960471 25.28315,16.516299 25.56346,16.21229 0.18986,-0.205912 1.86151,-3.950908 3.71476,-8.322204 1.85325,-4.371296 3.54262,-7.94781 3.75409,-7.94781 0.21145,0 1.79465,3.689759 3.51814,8.19946 1.7235,4.509704 3.3967,8.199459 3.71822,8.199459 0.32155,0 6.0323,-3.522953 12.69055,-7.82878 16.03194,-10.367715 15.35957,-9.994887 14.34775,-7.955809 -0.45397,0.914814 -4.07361,7.571673 -8.04369,14.79302 -3.97008,7.221347 -7.21832,13.416994 -7.21832,13.768105 0,0.351111 3.68555,2.300421 8.19011,4.3318 l 8.19008,3.693412 -4.20003,1.946422 c -10.63579,4.928924 -12.22607,5.872672 -11.82169,7.015586 0.22954,0.64886 3.69028,7.029123 7.69049,14.178342 4.00017,7.1492257 7.47536,13.3699267 7.72258,13.8237837 0.50334,0.92398 -8.33034,-4.267961 -19.13157,-11.2444447 -3.92706,-2.536466 -7.56607,-4.612061 -8.08668,-4.612423 -0.52061,-3.65e-4 -1.76118,2.151693 -2.75681,4.782352 -0.99563,2.630659 -2.51762,6.4229077 -3.38219,8.4272227 l -1.572,3.644203 -3.57366,-8.427223 c -1.96552,-4.6349697 -3.92776,-8.4272227 -4.36056,-8.4272227 -0.43279,0 -5.7598,3.218389 -11.83781,7.151981 -6.07799,3.9335817 -11.92434,7.6510797 -12.99188,8.2610917 -1.91986,1.097032 -1.92748,1.081161 -0.69875,-1.457911 z m 38.6496,-21.2195987 c 0.52283,0.01309 3.76339,1.643026 7.20127,3.621884 3.43785,1.978847 6.37448,3.463617 6.5258,3.299479 0.15144,-0.164144 -1.43011,-3.536361 -3.51436,-7.493849 -2.08426,-3.957479 -3.79235,-7.445929 -3.79578,-7.752108 -0.003,-0.306182 1.69476,-1.535393 3.77377,-2.731583 2.07905,-1.196199 3.78007,-2.389159 3.78007,-2.651022 0,-0.261866 -1.70102,-1.483919 -3.78007,-2.715689 -2.07901,-1.231769 -3.78003,-2.359732 -3.78003,-2.506584 0,-0.146858 1.5359,-3.580119 3.41312,-7.629479 1.87722,-4.049347 3.29472,-7.478107 3.15005,-7.619466 -0.14478,-0.14135 -2.90911,1.523544 -6.14317,3.699771 -3.23405,2.176227 -6.28901,3.974196 -6.78883,3.995486 -0.49982,0.02135 -1.88563,-1.887898 -3.0796,-4.242645 l -2.17083,-4.281349 -1.91786,4.281349 c -1.05481,2.354747 -2.31503,4.278304 -2.80046,4.274579 -0.48547,-0.0038 -3.86811,-1.856286 -7.51699,-4.116795 -3.64891,-2.26051 -6.7913,-3.939776 -6.98316,-3.731702 -0.19176,0.208081 1.18707,3.691425 3.0643,7.740772 1.87722,4.04936 3.41311,7.719275 3.41311,8.155374 0,0.436102 -1.51202,1.532397 -3.36003,2.436216 -3.97052,1.941877 -4.14384,2.607089 -1.05002,4.030171 5.804,2.669689 5.8154,2.763992 1.3977,11.553791 l -4.00682,7.972216 7.20893,-4.261921 c 3.9649,-2.344052 7.36964,-4.261918 7.56607,-4.261918 0.19652,0 1.24555,2.057263 2.33141,4.571702 l 1.97431,4.571691 2.46873,-4.116165 c 1.35781,-2.263901 2.89653,-4.10539 3.41937,-4.092206 z"
       style="fill:#ffffff;fill-opacity:1;stroke-width:0.87481022;filter:url(#filter9915)"
       clip-path="url(#clipPath8577)"
       inkscape:export-xdpi="96"
       inkscape:export-ydpi="96" />
    <path
       sodipodi:nodetypes="cccscccscccsscccssccsccccscscccssssscsscccccccssccssccccccsccscsccsccccccccscsccsscccc"
       inkscape:connector-curvature="0"
       id="path8492-9-5"
       d="m 87.31164,106.36189 c -5.966345,-0.70613 -13.413093,-3.90619 -18.086603,-7.772307 -4.04565,-3.34672 -8.55948,-11.19927 -10.52836,-18.31577 -1.53296,-5.54082 -1.74274,-9.33417 -2.06671,-37.37029 l -0.36056,-31.20349 h 5.46007 5.46007 l 0.351,31.20349 c 0.39828,35.40648 0.68177,37.22127 6.86044,43.91846 5.614481,6.08567 10.499764,8.15026 19.399049,8.19836 6.630644,0.0358 8.151254,-0.27409 12.368524,-2.52007 2.64463,-1.40851 6.12066,-4.22362 7.72451,-6.2558 5.52323,-6.99837 5.75407,-8.62146 6.1639,-43.34095 l 0.36834,-31.20349 h 5.44408 5.4441 l -0.35392,31.65902 c -0.36806,32.92285 -0.68323,36.09109 -4.37287,43.95821 -6.72491,14.338987 -20.91118,21.217997 -39.27506,19.044627 z M 516.20575,-3.4984403 c 0.68323,-1.411864 4.29405,-8.1016577 8.02404,-14.8662117 l 6.7818,-12.299191 -3.14301,-1.583031 c -1.72868,-0.870672 -5.41105,-2.637573 -8.18311,-3.926441 l -5.04005,-2.343404 7.7701,-3.722674 c 4.27357,-2.047465 7.76983,-4.175315 7.76949,-4.728543 0,-0.553225 -1.91408,-4.490643 -4.25276,-8.749807 -2.3387,-4.259166 -5.8189,-10.818734 -7.73377,-14.576819 -3.1615,-6.204675 -3.29184,-6.701935 -1.41732,-5.408582 8.63878,5.960471 25.28316,16.516299 25.56346,16.21229 0.18987,-0.205912 1.86151,-3.950908 3.71475,-8.322204 1.85325,-4.371296 3.54264,-7.94781 3.7541,-7.94781 0.21145,0 1.79464,3.689759 3.51813,8.19946 1.7235,4.509704 3.3967,8.199459 3.71822,8.199459 0.32155,0 6.03232,-3.522953 12.69055,-7.82878 16.03196,-10.367715 15.35957,-9.994887 14.34775,-7.955809 -0.45395,0.914814 -4.0736,7.571673 -8.04368,14.79302 -3.97007,7.221347 -7.21831,13.416993 -7.21831,13.768106 0,0.35111 3.68554,2.30042 8.1901,4.331798 l 8.19007,3.693414 -4.20002,1.94642 c -10.6358,4.928926 -12.22608,5.872673 -11.82169,7.015586 0.22955,0.648862 3.69028,7.029125 7.69049,14.178344 4.00018,7.1492237 7.47537,13.3699267 7.72257,13.8237827 0.50335,0.923981 -8.33032,-4.267962 -19.13157,-11.2444447 -3.92705,-2.536465 -7.56605,-4.612061 -8.08667,-4.612423 -0.52062,-2.65e-4 -1.76117,2.151692 -2.7568,4.782352 -0.99565,2.630659 -2.51764,6.4229077 -3.38219,8.4272217 l -1.572,3.644204 -3.57367,-8.427222 c -1.96551,-4.6349707 -3.92777,-8.4272227 -4.36055,-8.4272227 -0.4328,0 -5.75982,3.218389 -11.83783,7.151981 -6.07798,3.9335817 -11.92432,7.6510777 -12.99186,8.2610907 -1.91987,1.097031 -1.92749,1.081162 -0.69876,-1.45791 z m 38.64959,-21.2195987 c 0.52284,0.0131 3.76341,1.643026 7.20127,3.621884 3.43786,1.978845 6.3745,3.463615 6.52582,3.299478 0.15144,-0.164144 -1.43013,-3.53636 -3.51436,-7.493849 -2.08428,-3.957479 -3.79235,-7.445928 -3.79579,-7.752109 -0.003,-0.306181 1.69476,-1.535393 3.77378,-2.731582 2.07904,-1.1962 3.78007,-2.389158 3.78007,-2.651022 0,-0.261866 -1.70103,-1.483918 -3.78007,-2.715689 -2.07902,-1.23177 -3.78005,-2.359731 -3.78005,-2.506585 0,-0.146857 1.5359,-3.580117 3.41312,-7.629478 1.87722,-4.049347 3.29473,-7.478107 3.15005,-7.619466 -0.14478,-0.14135 -2.90909,1.523544 -6.14317,3.699771 -3.23403,2.176227 -6.28899,3.974196 -6.78881,3.995486 -0.49983,0.02135 -1.88564,-1.887898 -3.07962,-4.242645 l -2.17083,-4.281349 -1.91786,4.281349 c -1.05481,2.354747 -2.31502,4.278304 -2.80045,4.274579 -0.48546,-0.0038 -3.8681,-1.856286 -7.517,-4.116795 -3.6489,-2.26051 -6.7913,-3.939776 -6.98315,-3.731702 -0.19177,0.208081 1.18708,3.691425 3.0643,7.740772 1.87722,4.049361 3.4131,7.719275 3.4131,8.155374 0,0.436102 -1.51202,1.532398 -3.36002,2.436215 -3.97053,1.941877 -4.14383,2.60709 -1.05003,4.030173 5.80401,2.669688 5.81541,2.763991 1.39771,11.55379 l -4.00682,7.972216 7.20892,-4.261921 c 3.96491,-2.344053 7.36965,-4.261917 7.56608,-4.261917 0.19653,0 1.24555,2.057263 2.3314,4.571701 l 1.97432,4.571691 2.46872,-4.116165 c 1.35782,-2.2639 2.89655,-4.105389 3.41937,-4.092205 z"
       style="fill:#ffffff;fill-opacity:1;stroke-width:0.87481022;filter:url(#filter9927)"
       clip-path="url(#clipPath8603)" />
    <path
       sodipodi:nodetypes="cccscccscccsscccssccsccccscscccssssscsscccccccssccssccccccsccscsccsccccccccscsccsscccc"
       inkscape:connector-curvature="0"
       id="path8492-9-5-0"
       d="m 87.31164,106.3619 c -5.96635,-0.70613 -13.4131,-3.90619 -18.08661,-7.772309 -4.04565,-3.34672 -8.55948,-11.19927 -10.52836,-18.31577 -1.53296,-5.54082 -1.74274,-9.33417 -2.06671,-37.370287 L 56.2694,11.700044 h 5.46007 5.46007 l 0.351,31.20349 c 0.39828,35.406477 0.68177,37.221267 6.86044,43.918457 5.61448,6.08567 10.49977,8.15026 19.39905,8.19836 6.63065,0.0358 8.15126,-0.27409 12.36853,-2.52007 2.64463,-1.40851 6.12066,-4.22362 7.7245,-6.2558 5.52323,-6.99837 5.75408,-8.62146 6.1639,-43.340947 l 0.36835,-31.20349 h 5.44408 5.4441 l -0.35392,31.65902 c -0.36806,32.922847 -0.68323,36.091087 -4.37287,43.958207 -6.72491,14.338979 -20.91118,21.217999 -39.27506,19.044629 z M 516.20575,-3.4984303 c 0.68323,-1.411864 4.29405,-8.1016577 8.02404,-14.8662117 l 6.7818,-12.299191 -3.14301,-1.583031 c -1.72868,-0.870672 -5.41105,-2.637573 -8.18311,-3.926441 l -5.04005,-2.343404 7.7701,-3.722674 c 4.27357,-2.047465 7.76983,-4.175315 7.76949,-4.728543 0,-0.553225 -1.91408,-4.490643 -4.25276,-8.749807 -2.3387,-4.259166 -5.8189,-10.818734 -7.73377,-14.576819 -3.1615,-6.204675 -3.29184,-6.701935 -1.41732,-5.408582 8.63878,5.960471 25.28316,16.516299 25.56346,16.21229 0.18987,-0.205912 1.86151,-3.950908 3.71475,-8.322204 1.85325,-4.371296 3.54264,-7.94781 3.7541,-7.94781 0.21145,0 1.79464,3.689759 3.51813,8.19946 1.7235,4.509704 3.3967,8.199459 3.71822,8.199459 0.32155,0 6.03232,-3.522953 12.69055,-7.82878 16.03196,-10.367715 15.35957,-9.994887 14.34775,-7.955809 -0.45395,0.914814 -4.0736,7.571673 -8.04368,14.79302 -3.97007,7.221347 -7.21831,13.416993 -7.21831,13.768106 0,0.35111 3.68554,2.30042 8.1901,4.331798 l 8.19007,3.693414 -4.20002,1.94642 c -10.6358,4.928926 -12.22608,5.872673 -11.82169,7.015586 0.22955,0.648862 3.69028,7.029125 7.69049,14.178344 4.00018,7.1492237 7.47537,13.3699267 7.72257,13.8237827 0.50335,0.923981 -8.33032,-4.267962 -19.13157,-11.2444447 -3.92705,-2.536465 -7.56605,-4.612061 -8.08667,-4.612423 -0.52062,-2.65e-4 -1.76117,2.151692 -2.7568,4.782352 -0.99565,2.630659 -2.51764,6.4229077 -3.38219,8.4272217 l -1.572,3.644204 -3.57367,-8.427222 c -1.96551,-4.6349707 -3.92777,-8.4272227 -4.36055,-8.4272227 -0.4328,0 -5.75982,3.218389 -11.83783,7.151981 -6.07798,3.9335817 -11.92432,7.6510777 -12.99186,8.2610907 -1.91987,1.097031 -1.92749,1.081162 -0.69876,-1.45791 z m 38.64959,-21.2195987 c 0.52284,0.0131 3.76341,1.643026 7.20127,3.621884 3.43786,1.978845 6.3745,3.463615 6.52582,3.299478 0.15144,-0.164144 -1.43013,-3.53636 -3.51436,-7.493849 -2.08428,-3.957479 -3.79235,-7.445928 -3.79579,-7.752109 -0.003,-0.306181 1.69476,-1.535393 3.77378,-2.731582 2.07904,-1.1962 3.78007,-2.389158 3.78007,-2.651022 0,-0.261866 -1.70103,-1.483918 -3.78007,-2.715689 -2.07902,-1.23177 -3.78005,-2.359731 -3.78005,-2.506585 0,-0.146857 1.5359,-3.580117 3.41312,-7.629478 1.87722,-4.049347 3.29473,-7.478107 3.15005,-7.619466 -0.14478,-0.14135 -2.90909,1.523544 -6.14317,3.699771 -3.23403,2.176227 -6.28899,3.974196 -6.78881,3.995486 -0.49983,0.02135 -1.88564,-1.887898 -3.07962,-4.242645 l -2.17083,-4.281349 -1.91786,4.281349 c -1.05481,2.354747 -2.31502,4.278304 -2.80045,4.274579 -0.48546,-0.0038 -3.8681,-1.856286 -7.517,-4.116795 -3.6489,-2.26051 -6.7913,-3.939776 -6.98315,-3.731702 -0.19177,0.208081 1.18708,3.691425 3.0643,7.740772 1.87722,4.049361 3.4131,7.719275 3.4131,8.155374 0,0.436102 -1.51202,1.532398 -3.36002,2.436215 -3.97053,1.941877 -4.14383,2.60709 -1.05003,4.030173 5.80401,2.669688 5.81541,2.763991 1.39771,11.55379 l -4.00682,7.972216 7.20892,-4.261921 c 3.96491,-2.344053 7.36965,-4.261917 7.56608,-4.261917 0.19653,0 1.24555,2.057263 2.3314,4.571701 l 1.97432,4.571691 2.46872,-4.116165 c 1.35782,-2.2639 2.89655,-4.105389 3.41937,-4.092205 z"
       style="fill:#ffffff;fill-opacity:1;stroke-width:0.87481022;filter:url(#filter9919)"
       clip-path="url(#clipPath8640)"
       inkscape:export-xdpi="96"
       inkscape:export-ydpi="96" />
    <path
       sodipodi:nodetypes="cccscccscccsscccssccsccccscscccssssscsscccccccssccssccccccsccscsccsccccccccscsccsscccc"
       inkscape:connector-curvature="0"
       id="path8492-9-5-0-5"
       d="M 87.31164,106.36191 C 81.34529,105.65578 73.89854,102.45572 69.22503,98.5896 65.17938,95.24288 60.66555,87.39033 58.69667,80.27383 57.16371,74.733014 56.95393,70.939664 56.62996,42.903544 l -0.36056,-31.2035 h 5.46007 5.46007 l 0.351,31.2035 c 0.39828,35.406476 0.68177,37.221266 6.86044,43.918456 5.61448,6.08567 10.49977,8.15026 19.39905,8.19836 6.63065,0.0358 8.15126,-0.27409 12.36853,-2.52007 2.64463,-1.40851 6.12066,-4.22362 7.7245,-6.2558 5.52323,-6.99837 5.75408,-8.621456 6.1639,-43.340946 l 0.36835,-31.2035 h 5.44408 5.4441 l -0.35392,31.65903 c -0.36806,32.92285 -0.68323,36.091086 -4.37287,43.958206 -6.72491,14.33898 -20.91118,21.218 -39.27506,19.04463 z M 516.20574,-3.498426 c 0.68324,-1.41186 4.29406,-8.10166 8.02405,-14.86621 l 6.7818,-12.299193 -3.14301,-1.583031 c -1.72868,-0.870672 -5.41105,-2.637573 -8.18311,-3.926441 l -5.04005,-2.343404 7.7701,-3.722674 c 4.27357,-2.047465 7.76983,-4.175315 7.76948,-4.728543 0,-0.553225 -1.91407,-4.490643 -4.25275,-8.749807 -2.3387,-4.259166 -5.8189,-10.818735 -7.73377,-14.57682 -3.16151,-6.204675 -3.29184,-6.701935 -1.41732,-5.408582 8.63878,5.960471 25.28316,16.5163 25.56346,16.212291 0.18986,-0.205912 1.86153,-3.950908 3.71475,-8.322205 1.85325,-4.371296 3.54264,-7.94781 3.75412,-7.94781 0.21143,0 1.79462,3.689759 3.51811,8.19946 1.7235,4.509705 3.3967,8.19946 3.71822,8.19946 0.32155,0 6.03234,-3.522953 12.69055,-7.828781 16.03198,-10.367715 15.35957,-9.994887 14.34775,-7.955809 -0.45395,0.914814 -4.07358,7.571673 -8.04368,14.793021 -3.97007,7.221347 -7.21831,13.416993 -7.21831,13.768106 0,0.35111 3.68554,2.30042 8.1901,4.331798 l 8.19007,3.693414 -4.20002,1.94642 c -10.6358,4.928926 -12.22608,5.872673 -11.82169,7.015586 0.22955,0.648862 3.6903,7.029125 7.69051,14.178344 4.00016,7.14922 7.47535,13.36993 7.72255,13.82378 0.50335,0.92398 -8.33032,-4.26796 -19.13157,-11.24444 -3.92705,-2.53647 -7.56605,-4.61206 -8.08667,-4.61243 -0.52062,-2.6e-4 -1.76117,2.1517 -2.7568,4.78236 -0.99565,2.63066 -2.51764,6.4229 -3.3822,8.42722 l -1.57199,3.6442 -3.57368,-8.42722 c -1.96551,-4.63497 -3.92776,-8.42722 -4.36054,-8.42722 -0.43281,0 -5.75982,3.21839 -11.83783,7.15198 -6.07798,3.93358 -11.92432,7.65108 -12.99186,8.26109 -1.91987,1.09703 -1.92749,1.08116 -0.69877,-1.45791 z m 38.6496,-21.219599 c 0.52284,0.0131 3.76343,1.643026 7.20127,3.621884 3.43786,1.978845 6.3745,3.463615 6.52584,3.299475 0.15142,-0.16414 -1.43015,-3.536357 -3.51438,-7.493846 -2.08428,-3.957479 -3.79235,-7.445928 -3.79579,-7.752109 -0.003,-0.306181 1.69476,-1.535393 3.77378,-2.731582 2.07904,-1.1962 3.78007,-2.389158 3.78007,-2.651022 0,-0.261866 -1.70103,-1.483918 -3.78007,-2.715689 -2.07902,-1.23177 -3.78005,-2.359731 -3.78005,-2.506585 0,-0.146857 1.5359,-3.580117 3.41312,-7.629478 1.87722,-4.049347 3.29472,-7.478107 3.15005,-7.619466 -0.14478,-0.14135 -2.90909,1.523544 -6.14317,3.699771 -3.23403,2.176227 -6.28899,3.974196 -6.78879,3.995486 -0.49985,0.02135 -1.88566,-1.887898 -3.07964,-4.242645 l -2.17083,-4.281349 -1.91786,4.281349 c -1.05481,2.354747 -2.31502,4.278304 -2.80046,4.274579 -0.48545,-0.0038 -3.86807,-1.856286 -7.51699,-4.116795 -3.6489,-2.26051 -6.7913,-3.939776 -6.98315,-3.731702 -0.19177,0.208081 1.18708,3.691425 3.0643,7.740772 1.87722,4.049361 3.4131,7.719275 3.4131,8.155374 0,0.436102 -1.51202,1.532398 -3.36,2.436215 -3.97055,1.941877 -4.14385,2.60709 -1.05005,4.030173 5.80403,2.669688 5.81541,2.763991 1.39771,11.55379 l -4.00682,7.972219 7.20892,-4.261924 c 3.96491,-2.344053 7.36965,-4.261917 7.5661,-4.261917 0.19651,0 1.24553,2.057263 2.33138,4.571701 l 1.97432,4.57169 2.46872,-4.116164 c 1.35784,-2.2639 2.89655,-4.105389 3.41937,-4.092205 z"
       style="fill:#ffffff;fill-opacity:1;stroke-width:0.87481022;filter:url(#filter9923)"
       clip-path="url(#clipPath8644)" />
  </g>
</svg>
