<?xml version="1.0" encoding="UTF-8"?>
<svg width="26.147mm" height="26.396mm" version="1.1" viewBox="0 0 26.147 26.396"
  xml:space="preserve" xmlns="http://www.w3.org/2000/svg">
  <g transform="translate(-55.639 -10.381)">
    <path d="m66.03 31.491-10.308 4.9094 5.6143-9.8989-5.6977-2.8874 5.5175-3.0754-5.2109-9.9176 9.8132 5.4606 2.8703-5.6885 2.9047 5.6879 10.203-5.7001-5.6825 10.323 5.731 2.7924-5.5608 2.7867 5.4998 9.9908-10.399-5.0742-2.7082 5.5767zm4.3461-3.0809 5.2411 2.2238-2.5545-5.1446 2.6456-1.9557-2.6456-1.7454 2.2002-5.1772-4.6412 2.3812-2.0014-2.687-1.8507 2.687-5.3485-2.3934 2.4267 5.2388-2.3449 1.7657 2.2475 1.7969-2.5121 5.4955 5.4515-2.9242 1.6472 3.2622z" 
    fill="var(--light)" stroke-width=".26458"/>
  </g>
</svg>
