<?xml version="1.0" encoding="UTF-8" standalone="no"?>
<!-- Created with Inkscape (http://www.inkscape.org/) -->

<svg
   width="105.74478mm"
   height="30.149183mm"
   viewBox="0 0 105.74478 30.149183"
   version="1.1"
   id="svg5"
   xml:space="preserve"
   inkscape:version="1.2-rc (6364d40632, 2022-05-08)"
   sodipodi:docname="logo_bordered.svg"
   xmlns:inkscape="http://www.inkscape.org/namespaces/inkscape"
   xmlns:sodipodi="http://sodipodi.sourceforge.net/DTD/sodipodi-0.dtd"
   xmlns="http://www.w3.org/2000/svg"
   xmlns:svg="http://www.w3.org/2000/svg"><sodipodi:namedview
     id="namedview7"
     pagecolor="#505050"
     bordercolor="#eeeeee"
     borderopacity="1"
     inkscape:showpageshadow="0"
     inkscape:pageopacity="0"
     inkscape:pagecheckerboard="0"
     inkscape:deskcolor="#505050"
     inkscape:document-units="mm"
     showgrid="false"
     inkscape:zoom="0.94608586"
     inkscape:cx="633.13493"
     inkscape:cy="300.71267"
     inkscape:window-width="2400"
     inkscape:window-height="1271"
     inkscape:window-x="1314"
     inkscape:window-y="951"
     inkscape:window-maximized="1"
     inkscape:current-layer="layer1" /><defs
     id="defs2" /><g
     inkscape:label="Warstwa 1"
     inkscape:groupmode="layer"
     id="layer1"
     transform="translate(-2.900449,-2.6399656)"><g
       id="g2284"
       style="stroke:#ffffff;stroke-width:0.464217;stroke-dasharray:none;stroke-opacity:1"
       transform="matrix(0.61178329,0,0,0.61178329,0.97475878,-2.1756502)"><path
         style="fill:#000000;stroke:#ffffff;stroke-width:0.464217;stroke-dasharray:none;stroke-opacity:1"
         d="m 11.683064,56.483448 c -4.2267101,-1.18895 -6.73222,-3.97197 -7.73448,-8.59114 -0.14252,-0.65686 -0.32788,-5.09358 -0.41191,-9.85939 l -0.15277,-8.6651 h 1.73904 1.7390499 l 0.0816,9.32656 c 0.0917,10.48346 0.11063,10.59032 2.25385,12.73354 3.0323901,3.03239 9.0859201,3.04428 12.1064201,0.0238 2.08573,-2.08573 2.11485,-2.25384 2.20978,-12.75732 l 0.0843,-9.32656 h 1.73038 1.73037 l -0.1377,8.79739 c -0.17214,10.9982 -0.50517,12.60699 -3.20778,15.49631 -2.54824,2.72426 -7.90789,3.98149 -12.03013,2.82192 z m 66.9119,-0.079 c -5.80772,-1.51805 -10.05416,-7.23798 -10.05416,-13.54289 0,-12.30279 14.46355,-18.66951 22.95048,-10.10259 l 1.65577,1.67138 v -2.53127 -2.53127 h 1.5875 1.587499 v 13.49375 13.49375 h -1.587499 -1.5875 v -2.41159 -2.41159 l -1.66427,1.55169 c -3.68368,3.43449 -8.09941,4.57223 -12.88782,3.32063 z m 7.93751,-3.1954 c 5.55319,-2.10474 8.26393,-8.56519 6.06257,-14.44884 -3.19378,-8.53616 -15.41271,-9.13419 -19.54085,-0.95639 -4.55828,9.0299 4.12214,18.95134 13.47828,15.40523 z m 20.084236,3.17367 c -1.5179,-0.48564 -3.42549,-1.65266 -4.31277,-2.63845 -0.49551,-0.55051 -0.49008,-0.56716 0.55331,-1.69911 l 1.05371,-1.14314 1.25831,1.13922 c 3.54871,3.21285 8.94961,1.85851 9.35357,-2.34552 0.23369,-2.43211 -0.85151,-3.7268 -4.95215,-5.90812 -5.88027,-3.128 -7.90899,-7.15395 -5.67411,-11.26017 2.39713,-4.40431 7.5777,-4.92082 12.49825,-1.24609 l 1.41965,1.06022 -1.06789,1.06788 -1.06788,1.06789 -0.85012,-0.71533 c -2.87016,-2.41508 -6.36018,-2.56095 -8.03107,-0.33568 -2.02223,2.69319 -0.78754,4.81466 4.5289,7.78171 4.47791,2.49907 6.03576,4.29039 6.34609,7.29716 0.58631,5.68086 -5.14897,9.76739 -11.0558,7.87753 z M 35.467884,38.099068 v -18.25625 h 8.99583 8.99584 v 1.71979 1.71979 h -7.27604 -7.27605 v 5.82083 5.82084 h 7.27605 7.27604 v 1.71979 1.71979 h -7.27604 -7.27605 v 8.99583 8.99584 h -1.71979 -1.71979 z m 23.54792,-0.39688 v -18.65312 h 1.5875 1.5875 v 18.65312 18.65313 h -1.5875 -1.5875 z m 65.087496,0 v -18.65312 h 1.5875 1.5875 l 0.002,6.15156 c 0.001,3.38336 0.0741,6.74856 0.16176,7.47822 l 0.15945,1.32666 1.65124,-1.59532 c 6.0288,-5.82462 14.98226,-4.29334 17.37651,2.97186 0.55712,1.69051 0.59618,2.32897 0.69632,11.38212 l 0.10609,9.59115 h -1.58704 -1.58702 l -0.1022,-9.32657 c -0.0987,-9.00305 -0.12345,-9.38038 -0.71498,-10.87829 -2.06516,-5.22955 -8.58509,-5.95981 -13.0269,-1.45906 -2.67065,2.70602 -3.13039,4.94315 -3.13362,15.24777 l -0.002,6.41615 h -1.5875 -1.5875 z"
         id="path2019"
         sodipodi:nodetypes="sscccccssscccscsscsscccccccccccscssssssscssssscccssssscccccccccccccccccccccccccccccccccccccsssccccscscccc" /><g
         transform="translate(93.664097,-1.9118517)"
         id="g2129"
         style="stroke:#ffffff;stroke-width:0.464217;stroke-dasharray:none;stroke-opacity:1">
						<path
   d="m 66.03,31.491 -10.308,4.9094 5.6143,-9.8989 -5.6977,-2.8874 5.5175,-3.0754 -5.2109,-9.9176 9.8132,5.4606 2.8703,-5.6885 2.9047,5.6879 10.203,-5.7001 -5.6825,10.323 5.731,2.7924 -5.5608,2.7867 5.4998,9.9908 -10.399,-5.0742 -2.7082,5.5767 z m 4.3461,-3.0809 5.2411,2.2238 -2.5545,-5.1446 2.6456,-1.9557 -2.6456,-1.7454 2.2002,-5.1772 -4.6412,2.3812 -2.0014,-2.687 -1.8507,2.687 -5.3485,-2.3934 2.4267,5.2388 -2.3449,1.7657 2.2475,1.7969 -2.5121,5.4955 5.4515,-2.9242 1.6472,3.2622 z"
   fill="var(--light)"
   stroke-width="0.26458"
   id="path2127"
   style="stroke:#ffffff;stroke-width:0.464217;stroke-dasharray:none;stroke-opacity:1" />
					</g></g></g></svg>
